<svg width="34" height="44" viewBox="0 0 34 44" fill="none" xmlns="http://www.w3.org/2000/svg">
<path fill-rule="evenodd" clip-rule="evenodd" d="M16.9999 41.7854C8.90928 41.7854 2 40.5264 2 35.4841C2 30.4421 8.86545 25.7873 16.9999 25.7873C25.0908 25.7873 32 30.3969 32 35.4392C32 40.4792 25.1346 41.7854 16.9999 41.7854Z" stroke="#130F26" stroke-opacity="0.75" stroke-width="2.5" stroke-linecap="round" stroke-linejoin="round"/>
<path fill-rule="evenodd" clip-rule="evenodd" d="M16.9839 21.2276C22.2935 21.2276 26.5968 16.9243 26.5968 11.6148C26.5968 6.30536 22.2935 2 16.9839 2C11.6745 2 7.3692 6.30536 7.3692 11.6148C7.35127 16.9064 11.6247 21.2098 16.9162 21.2276C16.9401 21.2276 16.962 21.2276 16.9839 21.2276Z" stroke="#130F26" stroke-opacity="0.75" stroke-width="2.5" stroke-linecap="round" stroke-linejoin="round"/>
</svg>
