<svg width="30" height="30" viewBox="0 0 30 30" fill="none" xmlns="http://www.w3.org/2000/svg">
<g clip-path="url(#clip0_5_298)">
<path d="M28.853 0.861676C27.7041 -0.287286 25.8347 -0.287286 24.6859 0.861676C23.6912 1.85642 2.30754 23.2401 1.15107 24.3966C0.00211155 25.5455 0.00211143 27.415 1.15102 28.5638C2.30256 29.7155 4.1666 29.7156 5.31825 28.5638L8.09835 25.7837C8.24214 26.8016 8.70432 27.7826 9.48549 28.5638C11.4002 30.4787 14.516 30.4788 16.4309 28.5638C18.1777 26.817 18.3048 24.1401 16.9695 22.258C18.1205 21.0177 19.2119 19.2814 19.8659 17.6319C20.2495 16.6644 20.4632 15.7944 20.5074 15.0363C22.7007 15.3758 25.0609 14.1784 26.6674 12.5718C26.8536 12.3856 27.0299 12.1927 27.1979 11.9955V25.7951C27.1979 26.3368 26.7573 26.7775 26.2157 26.7775C25.6741 26.7775 25.2335 26.3369 25.2335 25.7953V23.8309C25.2335 23.2884 24.7937 22.8486 24.2513 22.8486C23.7088 22.8486 23.2691 23.2884 23.2691 23.8309V25.7953C23.2691 27.4201 24.5909 28.742 26.2157 28.742C27.8405 28.742 29.1558 27.4201 29.1558 25.7952C29.1558 25.0562 29.1558 5.50803 29.1558 4.66458C29.9835 3.5138 29.8873 1.89591 28.853 0.861676ZM16.3489 11.9769L17.7379 13.366L11.9337 19.1703L10.5446 17.7812L16.3489 11.9769ZM3.92912 27.1748C3.54533 27.5586 2.92394 27.5588 2.54009 27.1748C2.54004 27.1748 2.54004 27.1748 2.54004 27.1748C2.15613 26.7908 2.15613 26.1696 2.54004 25.7857L9.15543 19.1703L10.5445 20.5593L3.92912 27.1748ZM15.0418 27.1747C13.8927 28.3236 12.0234 28.3236 10.8744 27.1747C9.96321 26.2635 9.77547 24.8994 10.3096 23.8007L12.4381 25.8483C12.8288 26.2242 13.4506 26.2126 13.827 25.8214C14.203 25.4305 14.191 24.8087 13.8001 24.4326L11.7098 22.4219C12.8055 21.9109 14.1452 22.1111 15.0417 23.0075C16.1935 24.1593 16.1935 26.0231 15.0418 27.1747ZM18.0396 16.9079C17.4797 18.3203 16.5167 19.855 15.5376 20.913C14.9535 20.5523 14.3101 20.3244 13.6507 20.2312L18.4865 15.3954C18.4129 15.8197 18.2704 16.3259 18.0396 16.9079ZM25.2783 11.1828C23.8615 12.5996 22.0699 13.31 20.7887 13.0935L27.1618 6.72028C27.354 7.78955 26.8904 9.57063 25.2783 11.1828ZM27.4641 3.63984L19.127 11.9769L17.7379 10.5879L26.075 2.25076C26.4589 1.86685 27.0801 1.86685 27.4641 2.25076C27.848 2.63478 27.848 3.25593 27.4641 3.63984Z" fill="black"/>
</g>
<defs>
<clipPath id="clip0_5_298">
<rect width="30" height="30" fill="white"/>
</clipPath>
</defs>
</svg>
