<svg width="20" height="20" viewBox="0 0 20 20" fill="none" xmlns="http://www.w3.org/2000/svg">
<path d="M3.47827 9.56523V20H16.5217V9.56523H3.47827ZM10.6522 15.2599V17.1739H9.34784V15.2599C8.95812 15.0343 8.69565 14.6132 8.69565 14.1304C8.69565 13.41 9.2796 12.8261 9.99999 12.8261C10.7204 12.8261 11.3043 13.41 11.3043 14.1304C11.3043 14.6131 11.0419 15.0343 10.6522 15.2599Z" fill="black" fill-opacity="0.75"/>
<path d="M10.0001 0C7.11861 0 4.78271 2.3359 4.78271 5.21738C4.78271 8.09887 4.78271 8.26086 4.78271 8.26086H7.39143V5.21738C7.39143 3.77895 8.5617 2.60867 10.0001 2.60867C11.4386 2.60867 12.6088 3.77895 12.6088 5.21738V8.26086H15.2176C15.2176 8.26086 15.2176 8.09887 15.2176 5.21738C15.2176 2.3359 12.8816 0 10.0001 0Z" fill="black" fill-opacity="0.75"/>
</svg>
