<svg width="30" height="39" viewBox="0 0 30 39" fill="none" xmlns="http://www.w3.org/2000/svg">
<g clip-path="url(#clip0_5_247)">
<path d="M12.4497 4.40345C12.1059 3.87528 11.4897 3.8005 11.0733 4.23658L8.28235 7.15965C7.86592 7.59573 7.80703 8.3775 8.1508 8.90567C8.49469 9.43392 9.11086 9.50839 9.52723 9.07254L12.3182 6.14947C12.7346 5.71339 12.7935 4.93162 12.4497 4.40345Z" fill="black"/>
<path d="M16.6756 7.97925H13.219C12.679 7.97925 12.2413 8.53455 12.2413 9.21947C12.2413 9.9044 12.679 10.4597 13.219 10.4597H16.6756C17.2155 10.4597 17.6533 9.9044 17.6533 9.21947C17.6533 8.53455 17.2155 7.97925 16.6756 7.97925Z" fill="black"/>
<path d="M12.3868 14.091L10.7875 12.9249C10.3195 12.5836 9.7217 12.7883 9.45263 13.3821C9.18357 13.976 9.34494 14.7341 9.81304 15.0754L11.4124 16.2415C11.8807 16.583 12.4782 16.3781 12.7473 15.7844C13.0164 15.1904 12.855 14.4323 12.3868 14.091Z" fill="black"/>
<path d="M21.9924 3.92537C21.7177 3.33588 21.1182 3.14025 20.6532 3.48877L19.0373 4.7003C18.5725 5.0489 18.4185 5.80941 18.6932 6.39913C18.8757 6.79068 19.2014 7.00839 19.5358 7.00839C19.7049 7.00839 19.8762 6.95272 20.0323 6.83565L21.6482 5.62412C22.1132 5.27552 22.2672 4.515 21.9924 3.92537Z" fill="black"/>
<path d="M20.2783 12.7599H18.0914C17.5514 12.7599 17.1137 13.3152 17.1137 14.0001C17.1137 14.6851 17.5515 15.2404 18.0914 15.2404H20.2784C20.8183 15.2404 21.2561 14.6851 21.2561 14.0001C21.2561 13.3152 20.8182 12.7599 20.2783 12.7599Z" fill="black"/>
<path d="M17.9327 19.6674L15.0386 18.0056C14.5467 17.7231 13.9673 18.0001 13.7447 18.624C13.522 19.2479 13.7403 19.983 14.2322 20.2654L17.1263 21.9272C17.619 22.2101 18.1978 21.932 18.4202 21.3088C18.6429 20.6848 18.4246 19.9499 17.9327 19.6674Z" fill="black"/>
<path d="M12.8232 22.3581C12.6459 21.7109 12.0884 21.3688 11.5787 21.5937L9.37875 22.5636C8.86869 22.7885 8.59886 23.4954 8.77617 24.1422C8.95377 24.7905 9.51175 25.1311 10.0206 24.9066L12.2206 23.9367C12.7306 23.7119 13.0005 23.005 12.8232 22.3581Z" fill="black"/>
<path d="M14.6353 27.064H11.3699C10.83 27.064 10.3922 27.6193 10.3922 28.3042C10.3922 28.9891 10.83 29.5444 11.3699 29.5444H14.6353C15.1753 29.5444 15.613 28.9891 15.613 28.3042C15.613 27.6193 15.1753 27.064 14.6353 27.064Z" fill="black"/>
<path d="M21.1508 24.0427H18.6579C18.1179 24.0427 17.6802 24.598 17.6802 25.2829C17.6802 25.9679 18.1179 26.5232 18.6579 26.5232H21.1508C21.6907 26.5232 22.1285 25.9679 22.1285 25.2829C22.1285 24.598 21.6907 24.0427 21.1508 24.0427Z" fill="black"/>
<path d="M24.8885 31.3169V3.86747C24.8885 1.73495 23.5208 0 21.8396 0H8.16023C6.47912 0 5.11142 1.73495 5.11142 3.86747V31.3169C4.08832 31.5736 3.31435 32.7201 3.31435 34.0921V35.2262C3.31435 36.7863 4.3149 38.0556 5.54472 38.0556H24.4553C25.6851 38.0556 26.6857 36.7863 26.6857 35.2262V34.0921C26.6856 32.7201 25.9117 31.5736 24.8885 31.3169ZM7.06682 3.86747C7.06682 3.10264 7.5573 2.48045 8.16023 2.48045H21.8396C22.4426 2.48045 22.9331 3.10264 22.9331 3.86747V31.2629H7.06682V3.86747ZM24.7302 35.2262C24.7302 35.4185 24.6068 35.575 24.4552 35.575H5.54467C5.39308 35.575 5.26969 35.4185 5.26969 35.2262V34.0921C5.26969 33.8998 5.39308 33.7433 5.54467 33.7433C5.85029 33.7433 24.1511 33.7433 24.4552 33.7433C24.6068 33.7433 24.7302 33.8998 24.7302 34.0921V35.2262Z" fill="black"/>
</g>
<defs>
<clipPath id="clip0_5_247">
<rect width="30" height="38.0556" fill="white"/>
</clipPath>
</defs>
</svg>
