<svg width="35" height="35" viewBox="0 0 35 35" fill="none" xmlns="http://www.w3.org/2000/svg">
<g clip-path="url(#clip0_98_35)">
<path d="M17.4999 4.81968C16.8696 4.81968 16.3586 5.33067 16.3586 5.96094V8.75075C16.3586 9.38103 16.8696 9.89201 17.4999 9.89201C18.1302 9.89201 18.6412 9.38103 18.6412 8.75075V5.96094C18.6412 5.33067 18.1302 4.81968 17.4999 4.81968Z" fill="black" fill-opacity="0.5"/>
<path d="M31.1952 2.28354H23.3873C21.3927 0.461562 18.7325 -0.324776 16.0232 0.123115C14.3718 0.396074 12.8521 1.14099 11.6029 2.28354H3.80471C1.91683 2.28354 0.380859 3.81937 0.380859 5.70739V31.5762C0.380859 33.464 1.91683 35 3.80471 35H31.1952C33.0831 35 34.6191 33.4641 34.6191 31.5762V5.70732C34.6191 3.81944 33.0831 2.28354 31.1952 2.28354ZM16.3587 32.7174H3.80471C3.17539 32.7174 2.66345 32.2054 2.66345 31.5762V5.70732C2.66345 5.07801 3.17539 4.56606 3.80471 4.56606H9.80727C9.34769 5.40695 9.03044 6.31811 8.87239 7.27398C8.40188 10.1198 9.29246 12.9122 11.3155 14.9352C12.7093 16.3291 14.4685 17.1848 16.3587 17.4288V32.7174ZM12.9295 13.3212C11.4334 11.8251 10.7754 9.75673 11.1243 7.6462C11.5646 4.98292 13.7322 2.81538 16.3954 2.37508C16.7667 2.31369 17.1362 2.28354 17.502 2.28354C19.2155 2.28354 20.8375 2.94738 22.0705 4.18024C23.5665 5.67629 24.2245 7.74471 23.8756 9.85523C23.4353 12.5185 21.2677 14.6861 18.6045 15.1264C16.4934 15.4753 14.4254 14.8173 12.9295 13.3212ZM32.3365 31.5762C32.3365 32.2055 31.8245 32.7174 31.1952 32.7174H18.6412V17.4269C18.753 17.4126 18.8648 17.3968 18.9767 17.3784C20.7588 17.0838 22.3883 16.2405 23.689 14.9399C24.9897 13.6391 25.8329 12.0096 26.1275 10.2275C26.4575 8.23156 26.1172 6.2624 25.187 4.56606H31.1951C31.8245 4.56606 32.3364 5.07808 32.3364 5.70732V31.5762H32.3365Z" fill="black" fill-opacity="0.5"/>
</g>
<defs>
<clipPath id="clip0_98_35">
<rect width="35" height="35" fill="white"/>
</clipPath>
</defs>
</svg>
