<svg width="30" height="30" viewBox="0 0 30 30" fill="none" xmlns="http://www.w3.org/2000/svg">
<g clip-path="url(#clip0_5_194)">
<path d="M27.4344 9.52011C24.0413 9.52011 22.3327 11.9188 21.2019 13.509C21.2016 13.5095 21.2012 13.51 21.2009 13.5105C21.2002 13.5114 21.1996 13.5123 21.1989 13.5133C20.1255 15.0229 19.7608 15.3488 19.1451 15.3488C18.5293 15.3488 18.1645 15.0229 17.091 13.5132C17.0905 13.5126 17.0901 13.512 17.0897 13.5114C17.0893 13.5108 17.0889 13.5101 17.0884 13.5095C15.9577 11.9194 14.2489 9.52011 10.8553 9.52011C7.45915 9.52011 5.75037 11.9231 4.61961 13.5132C3.54602 15.0229 3.18126 15.3488 2.5655 15.3488C1.15087 15.3488 0 16.4997 0 17.9143C0 19.329 1.15087 20.4799 2.56557 20.4799C5.96164 20.4799 7.67042 18.077 8.80125 16.4868C9.87478 14.9771 10.2395 14.6512 10.8553 14.6512C11.4711 14.6512 11.8359 14.9771 12.9094 16.4869C14.0402 18.077 15.7489 20.4799 19.1451 20.4799C22.5412 20.4799 24.2499 18.0769 25.3806 16.4868C26.4541 14.9771 26.8188 14.6512 27.4345 14.6512C28.8491 14.6512 30.0001 13.5004 30.0001 12.0857C30 10.671 28.8491 9.52011 27.4344 9.52011ZM10.8553 13.4059C9.56644 13.4059 8.86432 14.2555 7.86843 15.65L6.71158 14.6918C6.4467 14.4725 6.05417 14.5092 5.83487 14.7742C5.6155 15.039 5.65237 15.4316 5.91719 15.6509L7.13319 16.6581C6.12615 17.9638 4.80349 19.2346 2.5655 19.2346C1.83755 19.2346 1.24527 18.6423 1.24527 17.9143C1.24527 17.1864 1.83755 16.5941 2.5655 16.5941C3.88954 16.5941 4.59427 15.6977 5.6345 14.2349C6.73369 12.6892 8.10168 10.7654 10.8553 10.7654C13.3443 10.7654 14.7011 12.3372 15.7507 13.7808L13.7659 15.5435C12.8098 14.2126 12.111 13.4059 10.8553 13.4059ZM19.1451 19.2346C16.8493 19.2346 15.517 17.8974 14.5003 16.5569L16.4824 14.7966C17.3184 15.9235 18.0003 16.5941 19.1451 16.5941C20.2895 16.5941 20.9714 15.9238 21.807 14.7974L23.7868 16.5607C22.7705 17.8999 21.4386 19.2346 19.1451 19.2346ZM27.4344 13.4059C26.1776 13.4059 25.4787 14.2141 24.5213 15.5473L22.5387 13.7814C23.5883 12.3376 24.9451 10.7654 27.4344 10.7654C28.1624 10.7654 28.7547 11.3577 28.7547 12.0856C28.7547 12.8136 28.1624 13.4059 27.4344 13.4059Z" fill="black"/>
</g>
<defs>
<clipPath id="clip0_5_194">
<rect width="30" height="30" fill="white"/>
</clipPath>
</defs>
</svg>
