<svg width="20" height="20" viewBox="0 0 20 20" fill="none" xmlns="http://www.w3.org/2000/svg">
<path d="M18.0381 12.7197C18.0791 12.7908 18.1058 12.8692 18.1165 12.9506C18.1272 13.032 18.1218 13.1147 18.1005 13.1939C18.0793 13.2732 18.0427 13.3475 17.9927 13.4126C17.9427 13.4778 17.8804 13.5324 17.8094 13.5734C17.7383 13.6145 17.6598 13.6411 17.5785 13.6518C17.4971 13.6625 17.4144 13.6571 17.3351 13.6359C17.2559 13.6146 17.1815 13.578 17.1164 13.528C17.0513 13.4781 16.9967 13.4158 16.9556 13.3447L15.5195 10.8573C14.6734 11.424 13.7429 11.8532 12.7626 12.1291L13.2168 14.7044C13.2456 14.8677 13.2083 15.0357 13.1132 15.1714C13.0182 15.3072 12.873 15.3997 12.7098 15.4285C12.6737 15.4349 12.6371 15.438 12.6005 15.4381C12.4537 15.4378 12.3116 15.386 12.1992 15.2915C12.0868 15.1971 12.0112 15.0661 11.9857 14.9216L11.539 12.3882C10.5161 12.5376 9.47683 12.5372 8.45402 12.3871L8.00736 14.9205C7.98185 15.0651 7.90627 15.1961 7.79386 15.2905C7.68146 15.385 7.5394 15.4369 7.39258 15.4371C7.35595 15.437 7.3194 15.4339 7.28333 15.4275C7.12008 15.3987 6.97496 15.3063 6.87987 15.1705C6.78479 15.0347 6.74752 14.8668 6.77628 14.7035L7.23053 12.1271C6.25142 11.8508 5.32213 11.4215 4.47706 10.8551L3.03253 13.3571C2.99149 13.4281 2.93686 13.4904 2.87174 13.5404C2.80663 13.5904 2.73231 13.627 2.65304 13.6482C2.57376 13.6695 2.49108 13.6749 2.40971 13.6642C2.32834 13.6535 2.24988 13.6268 2.1788 13.5858C2.10773 13.5448 2.04543 13.4901 1.99547 13.425C1.94551 13.3599 1.90886 13.2856 1.88762 13.2063C1.86638 13.127 1.86097 13.0443 1.87168 12.963C1.8824 12.8816 1.90903 12.8031 1.95007 12.7321L3.4733 10.0938C2.94203 9.63658 2.4535 9.13193 2.01378 8.5861C1.90961 8.45717 1.86093 8.29214 1.87844 8.12731C1.89595 7.96248 1.97823 7.81136 2.10716 7.7072C2.23609 7.60303 2.40113 7.55435 2.56595 7.57186C2.73078 7.58937 2.8819 7.67164 2.98607 7.80058C3.47414 8.40791 4.03115 8.95646 4.64588 9.43518C4.65078 9.43869 4.65527 9.44254 4.66003 9.44616C6.18542 10.6329 8.06744 11.2686 10 11.25C11.9321 11.2686 13.8137 10.6332 15.3389 9.44696C15.3429 9.44387 15.3468 9.44059 15.351 9.43762C15.9669 8.95831 16.525 8.40893 17.0139 7.80058C17.1181 7.67178 17.2692 7.58964 17.4339 7.5722C17.5987 7.55475 17.7636 7.60344 17.8925 7.70755C18.0213 7.81167 18.1036 7.9627 18.1212 8.12744C18.1387 8.29218 18.0902 8.45715 17.9861 8.5861C17.5456 9.133 17.056 9.63856 16.5235 10.0965L18.0381 12.7197Z" fill="black"/>
</svg>
