<svg width="30" height="30" viewBox="0 0 30 30" fill="none" xmlns="http://www.w3.org/2000/svg">
<g clip-path="url(#clip0_5_229)">
<path d="M17.7005 13.4074C17.2135 13.4072 16.7798 13.0969 16.6211 12.6353C16.472 12.2009 16.0635 11.9093 15.6041 11.9093C15.6039 11.9093 15.6038 11.9093 15.6036 11.9093L14.9304 11.9095C14.5976 11.9097 14.2837 12.0638 14.0802 12.327C13.8767 12.5903 13.8065 12.9329 13.8901 13.2549C14.3405 14.9903 15.9071 16.2026 17.7002 16.2031C20.219 16.2025 22.2683 14.1526 22.2687 11.6333C22.2683 8.67684 19.8628 6.27151 16.9061 6.27151C13.4031 6.27166 10.553 9.12179 10.553 12.625C10.5536 16.8107 13.9593 20.2164 18.1454 20.2168C23.185 20.2164 27.2854 16.116 27.2858 11.0763C27.2858 8.11776 26.1337 5.33624 24.0416 3.24425C21.9498 1.15205 19.1685 -7.16818e-05 16.2098 3.34498e-09C8.76823 3.34498e-09 2.714 6.05417 2.714 13.4957C2.714 17.9084 4.43243 22.057 7.55267 25.1772C10.4751 28.0998 14.3518 29.812 18.4686 29.9989C18.4849 29.9997 18.5011 30.0001 18.5174 30.0001C18.7936 30.0001 19.0597 29.8938 19.2602 29.7022C19.4725 29.4993 19.5926 29.2185 19.5926 28.9248V28.2787C19.5926 27.7049 19.1421 27.232 18.5689 27.2047C11.246 26.8538 5.50972 20.8322 5.50972 13.4958C5.50972 7.59575 10.3098 2.79579 16.2099 2.79579C18.4216 2.79572 20.5009 3.65709 22.065 5.22104C23.629 6.78507 24.4904 8.86458 24.4904 11.0763C24.4902 14.5746 21.644 17.4208 18.1458 17.4213C15.5011 17.4208 13.3495 15.2692 13.3491 12.6249C13.3491 10.6634 14.945 9.06745 16.9065 9.0673C18.3214 9.0673 19.4729 10.2186 19.4732 11.6334C19.473 12.6114 18.6775 13.4072 17.7005 13.4074Z" fill="black"/>
</g>
<defs>
<clipPath id="clip0_5_229">
<rect width="30" height="30" fill="white"/>
</clipPath>
</defs>
</svg>
