<svg width="35" height="35" viewBox="0 0 35 35" fill="none" xmlns="http://www.w3.org/2000/svg">
<path d="M28.916 25.7715C28.916 28.1641 23.2422 30.625 19.3457 30.625C14.5605 30.625 10.0488 28.0957 7.72461 23.9258C6.63086 22.0117 6.08398 19.8242 6.08398 17.6367C6.08398 15.1074 6.83594 12.5781 8.27148 10.3906C9.43359 8.68164 11.5527 6.35742 15.3809 5.12695C16.3379 4.78516 18.0469 4.375 19.9609 4.375C25.3613 4.375 28.7793 8.13477 28.7793 11.416C28.7793 13.6719 26.9336 16.8848 22.4219 16.8848C20.3711 16.8848 19.6191 15.9961 19.6191 15.0391C19.6191 13.6719 20.8496 12.168 21.8066 12.168C22.2168 12.168 22.4219 12.5781 23.1738 12.4414C23.9258 12.3047 24.2676 11.8262 24.2676 11.2793C24.2676 10.1172 22.9004 8.61328 20.0293 8.61328C19.0723 8.61328 18.0469 8.75 16.748 9.16016C14.1504 9.91211 12.7832 11.7578 12.0312 12.9199C11.1704 14.2276 10.678 15.7431 10.6059 17.307C10.5337 18.8708 10.8844 20.4253 11.6211 21.8066C13.125 24.541 16.1328 26.1816 19.3457 26.1816C23.7891 26.1816 25.0195 23.7891 25.9082 23.4473C27.4805 22.7637 28.916 24.6777 28.916 25.7715Z" fill="black"/>
</svg>
