<svg width="30" height="30" viewBox="0 0 30 30" fill="none" xmlns="http://www.w3.org/2000/svg">
<g clip-path="url(#clip0_5_317)">
<path d="M28.4918 15.9312L27.5607 15.0001L28.492 14.0688C28.8894 14.2148 29.3526 14.1294 29.6717 13.8103C30.1095 13.3725 30.1095 12.6627 29.6717 12.2249C29.2339 11.7871 28.5241 11.7871 28.0863 12.2249C27.7674 12.5438 27.682 13.0066 27.8276 13.4039L26.8961 14.3354L25.1815 12.6208L26.1128 11.6895C26.5102 11.8354 26.9733 11.75 27.2923 11.4309C27.7301 10.9931 27.7301 10.2834 27.2923 9.84556C26.8545 9.40775 26.1448 9.40775 25.707 9.84556C25.3881 10.1644 25.3026 10.6274 25.4483 11.0246L24.5168 11.9561L22.8022 10.2416L23.7336 9.31025C24.131 9.45613 24.594 9.37066 24.913 9.05171C25.3508 8.6139 25.3508 7.90415 24.913 7.46634C24.4752 7.02853 23.7655 7.02853 23.3277 7.46634C23.0087 7.78528 22.9233 8.24822 23.0691 8.64555L22.1376 9.577L20.423 7.86241L21.3544 6.93103C21.7517 7.07684 22.2148 6.99143 22.5337 6.67243C22.9716 6.23461 22.9716 5.52486 22.5337 5.08705C22.0959 4.64924 21.3861 4.64924 20.9484 5.08705C20.6294 5.40599 20.544 5.86899 20.6898 6.26632L19.7584 7.19771L18.0438 5.48313L18.9752 4.55167C19.3726 4.69742 19.8355 4.61202 20.1545 4.29307C20.5923 3.85526 20.5923 3.14544 20.1545 2.70769C19.7167 2.26988 19.0068 2.26988 18.5691 2.70769C18.2501 3.0267 18.1647 3.48976 18.3105 3.88709L17.3792 4.81848L15.6646 3.1039L16.596 2.17245C16.9933 2.31813 17.4562 2.23266 17.7751 1.91378C18.2129 1.47597 18.2129 0.766153 17.7751 0.328405C17.3373 -0.109405 16.6275 -0.109405 16.1897 0.328405C15.8707 0.647411 15.7853 1.11054 15.9312 1.50793L14.9999 2.43926L14.0688 1.50818C14.2149 1.11072 14.1294 0.647473 13.8104 0.328342C13.3726 -0.109468 12.6628 -0.109468 12.225 0.328342C11.7872 0.766153 11.7872 1.47597 12.225 1.91372C12.5438 2.23254 13.0066 2.31801 13.4038 2.17251L14.3352 3.1039L12.6205 4.81848L11.6894 3.88741C11.8354 3.48995 11.7501 3.02676 11.431 2.70769C10.9932 2.26988 10.2834 2.26988 9.84565 2.70769C9.40784 3.14551 9.40784 3.85526 9.84565 4.29307C10.1645 4.61189 10.6273 4.69736 11.0245 4.5518L11.9559 5.48313L10.2413 7.19771L9.31021 6.26663C9.45615 5.86924 9.3708 5.40605 9.05173 5.08698C8.61392 4.64917 7.9041 4.64917 7.46636 5.08698C7.02855 5.52479 7.02855 6.23455 7.46636 6.67236C7.78524 6.99124 8.24811 7.07671 8.64538 6.93103L9.5767 7.86235L7.86212 9.57694L6.93098 8.6458C7.07686 8.2484 6.99145 7.78528 6.67245 7.46627C6.23463 7.02846 5.52488 7.02846 5.08707 7.46627C4.64926 7.90408 4.64926 8.61384 5.08707 9.05165C5.40595 9.37053 5.86888 9.456 6.26622 9.31031L7.19748 10.2416L5.48289 11.9562L4.55176 11.025C4.69763 10.6277 4.61222 10.1646 4.29322 9.84563C3.85541 9.40782 3.14565 9.40782 2.70784 9.84563C2.27003 10.2834 2.27003 10.9932 2.70784 11.431C3.02678 11.7499 3.48972 11.8354 3.88705 11.6896L4.81825 12.6208L3.10367 14.3354L2.17247 13.4042C2.31828 13.0069 2.23281 12.5439 1.91387 12.2249C1.47606 11.787 0.766298 11.787 0.328487 12.2249C-0.109323 12.6627 -0.109323 13.3724 0.328487 13.8102C0.64743 14.1292 1.11043 14.2146 1.50782 14.0688L2.43903 15L1.50801 15.931C1.11062 15.7852 0.647556 15.8706 0.32855 16.1896C-0.10926 16.6274 -0.10926 17.3372 0.32855 17.775C0.76636 18.2128 1.47612 18.2128 1.91393 17.775C2.23281 17.4561 2.31828 16.9931 2.17259 16.5958L3.10373 15.6647L4.81831 17.3793L3.8873 18.3103C3.48997 18.1644 3.02685 18.2499 2.7079 18.5688C2.27009 19.0066 2.27009 19.7164 2.7079 20.1542C3.14571 20.592 3.85547 20.592 4.29328 20.1542C4.61222 19.8352 4.69763 19.3723 4.55188 18.975L5.48296 18.0439L7.19754 19.7585L6.26647 20.6896C5.86913 20.5437 5.40607 20.6292 5.08713 20.9482C4.64932 21.386 4.64932 22.0957 5.08713 22.5335C5.52494 22.9713 6.23476 22.9713 6.67251 22.5335C6.99145 22.2146 7.07686 21.7516 6.93111 21.3543L7.86218 20.4232L9.5767 22.1377L8.64563 23.0689C8.2483 22.9231 7.78536 23.0086 7.46648 23.3275C7.02867 23.7653 7.02867 24.475 7.46648 24.9128C7.90429 25.3506 8.61411 25.3506 9.05186 24.9128C9.37086 24.5938 9.45627 24.1308 9.3104 23.7334L10.2414 22.8024L11.956 24.5169L11.0249 25.4481C10.6276 25.3024 10.1647 25.3879 9.84577 25.7067C9.40796 26.1446 9.40796 26.8544 9.84577 27.2921C10.2836 27.7299 10.9933 27.7299 11.4311 27.2921C11.7502 26.9731 11.8356 26.51 11.6896 26.1126L12.6206 25.1816L14.3352 26.8962L13.4041 27.8273C13.0068 27.6816 12.5439 27.7671 12.2251 28.086C11.7872 28.5238 11.7872 29.2336 12.2251 29.6713C12.6629 30.1092 13.3726 30.1092 13.8104 29.6713C14.1295 29.3523 14.2149 28.8891 14.0689 28.4917L14.9999 27.5607L15.9312 28.4921C15.7854 28.8894 15.8708 29.3524 16.1898 29.6714C16.6276 30.1092 17.3374 30.1092 17.7752 29.6714C18.213 29.2336 18.213 28.5238 17.7752 28.086C17.4562 27.7671 16.9932 27.6817 16.5959 27.8274L15.3335 26.565C15.3331 26.5646 15.3327 26.5641 15.3323 26.5638C15.332 26.5634 15.3315 26.563 15.3311 26.5626L13.2854 24.5169L15 22.8024L16.7146 24.5169L16.0154 25.2161C15.8319 25.3997 15.8319 25.6972 16.0154 25.8807C16.1072 25.9725 16.2275 26.0184 16.3478 26.0184C16.468 26.0184 16.5883 25.9725 16.6801 25.8807L17.3793 25.1816L18.3106 26.1129C18.1649 26.5102 18.2503 26.9732 18.5692 27.2921C19.007 27.7299 19.7168 27.7299 20.1546 27.2921C20.5924 26.8543 20.5924 26.1446 20.1546 25.7067C19.8356 25.3877 19.3725 25.3023 18.9752 25.4482L18.0439 24.5169L19.7585 22.8024L20.6898 23.7337C20.5441 24.131 20.6296 24.5939 20.9485 24.9128C21.3863 25.3506 22.0961 25.3506 22.5339 24.9128C22.9717 24.475 22.9717 23.7653 22.5339 23.3275C22.2149 23.0084 21.7517 22.923 21.3543 23.0689L20.4231 22.1377L22.1377 20.4231L23.0691 21.3545C22.9235 21.7518 23.009 22.2147 23.3278 22.5335C23.7656 22.9713 24.4754 22.9713 24.9132 22.5335C25.351 22.0957 25.351 21.386 24.9132 20.9482C24.5941 20.6291 24.131 20.5438 23.7336 20.6897L22.8024 19.7585L24.517 18.0439L25.4484 18.9754C25.3029 19.3726 25.3883 19.8354 25.7071 20.1543C26.1449 20.5921 26.8547 20.5921 27.2925 20.1543C27.7303 19.7164 27.7303 19.0067 27.2925 18.5689C26.9734 18.2498 26.5102 18.1644 26.1128 18.3105L25.1817 17.3793L26.8962 15.6647L27.8277 16.5962C27.6821 16.9934 27.7677 17.4561 28.0865 17.775C28.5243 18.2128 29.2341 18.2128 29.6719 17.775C30.1097 17.3372 30.1097 16.6275 29.6719 16.1896C29.3526 15.8705 28.8893 15.7852 28.4918 15.9312ZM23.8521 12.6209L22.1375 14.3355L20.423 12.6209L22.1375 10.9063L23.8521 12.6209ZM15.6644 12.6209L17.379 10.9063L19.0936 12.6209L17.379 14.3355L15.6644 12.6209ZM16.7144 15.0001L14.9998 16.7147L13.2852 15.0001L14.9998 13.2855L16.7144 15.0001ZM14.9998 11.9562L13.2852 10.2416L14.9998 8.52706L16.7144 10.2416L14.9998 11.9562ZM14.3352 12.6209L12.6206 14.3355L10.906 12.6209L12.6206 10.9063L14.3352 12.6209ZM11.9559 15.0001L10.2413 16.7147L8.5267 15.0002L10.2413 13.2856L11.9559 15.0001ZM12.6206 15.6648L14.3352 17.3794L12.6205 19.094L10.9059 17.3794L12.6206 15.6648ZM14.9998 18.044L16.7144 19.7586L14.9998 21.4732L13.2852 19.7586L14.9998 18.044ZM15.6644 17.3794L17.379 15.6648L19.0936 17.3794L17.379 19.094L15.6644 17.3794ZM18.0437 15.0001L19.7583 13.2855L21.4729 15.0001L19.7583 16.7147L18.0437 15.0001ZM21.4729 10.2416L19.7583 11.9562L18.0437 10.2416L19.7583 8.52706L21.4729 10.2416ZM19.0936 7.86235L17.379 9.57694L15.6644 7.86235L17.379 6.14777L19.0936 7.86235ZM14.9998 3.76854L16.7144 5.48313L14.9998 7.19771L13.2852 5.48313L14.9998 3.76854ZM12.6205 6.14783L14.3351 7.86241L12.6205 9.577L10.9059 7.86241L12.6205 6.14783ZM10.2413 8.52706L11.9559 10.2416L10.2413 11.9562L8.5267 10.2416L10.2413 8.52706ZM7.86206 10.9063L9.57664 12.6209L7.86206 14.3355L6.14747 12.6209L7.86206 10.9063ZM3.76818 15.0001L5.48277 13.2855L7.19735 15.0001L5.48277 16.7147L3.76818 15.0001ZM6.14747 17.3794L7.86206 15.6648L9.57664 17.3794L7.86206 19.094L6.14747 17.3794ZM8.52676 19.7587L10.2413 18.0441L11.9559 19.7587L10.2413 21.4732L8.52676 19.7587ZM12.6206 23.8525L10.906 22.1379L12.6206 20.4233L14.3352 22.1379L12.6206 23.8525ZM17.379 23.8525L15.6644 22.1379L17.379 20.4233L19.0936 22.1379L17.379 23.8525ZM19.7583 21.4732L18.0437 19.7586L19.7583 18.044L21.4729 19.7586L19.7583 21.4732ZM22.1375 19.094L20.423 17.3794L22.1375 15.6648L23.8521 17.3794L22.1375 19.094ZM24.5168 16.7147L22.8022 15.0001L24.5168 13.2855L26.2314 15.0001L24.5168 16.7147Z" fill="black"/>
</g>
<defs>
<clipPath id="clip0_5_317">
<rect width="30" height="30" fill="white"/>
</clipPath>
</defs>
</svg>
