<svg width="35" height="32" viewBox="0 0 35 32" fill="none" xmlns="http://www.w3.org/2000/svg">
<path d="M17.5 8.74936V17.4993H26.25V13.9994H21V8.74936H17.5Z" fill="black" fill-opacity="0.5"/>
<path d="M33.761 9.6191C32.9716 7.74669 31.8256 6.04563 30.387 4.61061C28.2092 2.43285 25.441 0.941041 22.4245 0.319613C20.3308 -0.106538 18.1727 -0.106538 16.079 0.319613C13.0597 0.937073 10.2891 2.4301 8.11299 4.61236C6.6778 6.04891 5.53232 7.74811 4.739 9.61735C3.91844 11.5574 3.49706 13.6429 3.5 15.7493L3.50175 15.7931H0L5.25 22.7493L10.5 15.7931H7.00174L6.99999 15.7493C6.99496 13.3088 7.72355 10.923 9.09124 8.9016C9.97345 7.5973 11.0967 6.4735 12.4005 5.59061C13.7269 4.69706 15.2147 4.07055 16.7807 3.74611C19.9632 3.09179 23.2752 3.72796 25.9887 5.51478C28.7023 7.3016 30.5952 10.0928 31.2515 13.2748C31.5816 14.9056 31.5816 16.586 31.2515 18.2168C30.9313 19.7842 30.3044 21.2728 29.407 22.5971C28.9695 23.2463 28.4672 23.8571 27.9125 24.4101C26.7945 25.5267 25.4727 26.4184 24.0187 27.0368C23.2782 27.3499 22.5085 27.589 21.721 27.7508C20.0907 28.0807 18.411 28.0807 16.7807 27.7508C15.215 27.4298 13.7278 26.8037 12.404 25.9081C11.7529 25.4681 11.1452 24.9671 10.5892 24.4118L8.11474 26.8863C9.57621 28.3498 11.312 29.5106 13.2228 30.3021C15.1336 31.0937 17.1817 31.5005 19.25 31.4993C21.3553 31.4985 23.4394 31.0779 25.3802 30.2621C28.1936 29.0718 30.6005 27.0898 32.3085 24.5571C34.0663 21.9564 35.0038 18.8884 35 15.7493C35.0044 13.6433 34.5829 11.5581 33.761 9.6191Z" fill="black" fill-opacity="0.5"/>
</svg>
