<svg width="30" height="30" viewBox="0 0 30 30" fill="none" xmlns="http://www.w3.org/2000/svg">
<path d="M15.0286 19.3156L18.1554 20.9711C17.8681 22.4509 16.5625 23.5714 15 23.5714C13.2276 23.5714 11.7857 22.1295 11.7857 20.3571V3.21571C11.7857 3.21521 11.7858 3.21479 11.7858 3.21429C11.7858 1.44193 10.3439 0 8.5715 0C6.79914 0 5.35721 1.44193 5.35721 3.21429H5.35714V20.3571C5.35714 25.6743 9.68293 30 15 30C20.3171 30 24.6429 25.6743 24.6429 20.3571V10.315L15.0286 19.3156ZM8.5715 2.14286C9.16228 2.14286 9.64293 2.6235 9.64293 3.21429C9.64293 3.80507 9.16228 4.28571 8.5715 4.28571C7.98071 4.28571 7.50007 3.80507 7.50007 3.21429C7.50007 2.6235 7.98071 2.14286 8.5715 2.14286ZM22.5 20.3571C22.5 24.4926 19.1355 27.8571 15 27.8571C10.8645 27.8571 7.5 24.4926 7.5 20.3571V6.24421C7.83535 6.36321 8.19585 6.42857 8.5715 6.42857C8.94707 6.42857 9.30757 6.36321 9.64285 6.24429V20.3571C9.64285 23.3111 12.0461 25.7143 15 25.7143C17.9539 25.7143 20.3571 23.3111 20.3571 20.3571V19.7121L18.6858 18.8272L22.5 15.2564V20.3571Z" fill="black"/>
</svg>
