<svg width="15" height="15" viewBox="0 0 15 15" fill="none" xmlns="http://www.w3.org/2000/svg">
<g clip-path="url(#clip0_97_8)">
<path d="M14.8394 11.3756C14.281 10.32 12.342 9.17541 12.2566 9.12536C12.0075 8.98354 11.7475 8.90846 11.5041 8.90846C11.1424 8.90846 10.8462 9.07419 10.6668 9.37562C10.3832 9.71488 10.0314 10.1114 9.94607 10.1729C9.28536 10.6211 8.76814 10.5702 8.19586 9.99796L5.00187 6.8037C4.4332 6.23503 4.38093 5.71141 4.82613 5.05432C4.88842 4.96839 5.28495 4.61635 5.62421 4.33243C5.84055 4.20368 5.98904 4.01236 6.05411 3.77767C6.14059 3.46539 6.07691 3.09805 5.87281 2.74016C5.8247 2.65785 4.67958 0.718549 3.62456 0.16045C3.42768 0.0561711 3.20578 0.00111198 2.98331 0.00111198C2.61681 0.00111198 2.27199 0.144043 2.01283 0.402932L1.30707 1.10841C0.19087 2.22433 -0.213175 3.4893 0.105501 4.86801C0.371342 6.01702 1.14606 7.23972 2.40853 8.50191L6.49764 12.591C8.09547 14.1888 9.61878 14.9992 11.0253 14.9992C11.0253 14.9992 11.0253 14.9992 11.0256 14.9992C12.06 14.9992 13.0244 14.5595 13.8911 13.6928L14.5966 12.9873C15.0254 12.5588 15.1227 11.9108 14.8394 11.3756Z" fill="black" fill-opacity="0.75"/>
</g>
<defs>
<clipPath id="clip0_97_8">
<rect width="15" height="15" fill="white"/>
</clipPath>
</defs>
</svg>
