<svg width="20" height="20" viewBox="0 0 20 20" fill="none" xmlns="http://www.w3.org/2000/svg">
<path d="M19.7479 18.5675L14.0096 12.8251C15.1409 11.4684 15.8213 9.7346 15.8213 7.84096C15.8213 3.52085 12.2758 0.00819397 7.91475 0.00819397C3.55364 0.00819397 0 3.52495 0 7.84506C0 12.1652 3.54544 15.6778 7.90655 15.6778C9.7592 15.6778 11.4643 15.0425 12.8169 13.9809L18.5757 19.7397C18.9118 20.0758 19.4118 20.0758 19.7479 19.7397C20.084 19.4036 20.084 18.9036 19.7479 18.5675ZM1.6805 7.84506C1.6805 4.45127 4.47587 1.69279 7.90655 1.69279C11.3372 1.69279 14.1326 4.45127 14.1326 7.84506C14.1326 11.2389 11.3372 13.9973 7.90655 13.9973C4.47587 13.9973 1.6805 11.2348 1.6805 7.84506Z" fill="black" fill-opacity="0.5"/>
</svg>
