<svg width="25" height="25" viewBox="0 0 25 25" fill="none" xmlns="http://www.w3.org/2000/svg">
<path d="M18.0095 1.49135C16.1395 1.49135 14.3777 2.22286 13.0538 3.54678L12.5077 4.09283L11.9514 3.53648C10.6274 2.21255 8.86565 1.48105 6.99567 1.48105C5.13085 1.48105 3.3742 2.2074 2.05028 3.53133C0.726355 4.85525 0 6.6119 0 8.48187C0 10.3519 0.731506 12.1085 2.05543 13.4324L11.8689 23.2459L11.8896 23.2665C12.0596 23.4365 12.2862 23.519 12.5077 23.519C12.7344 23.519 12.9611 23.4314 13.1311 23.2614L22.9446 13.4479C24.2685 12.124 25 10.3673 25 8.49733C25 6.62735 24.2736 4.86555 22.9497 3.54678C21.631 2.21771 19.8743 1.49135 18.0095 1.49135ZM21.6979 12.1961L12.5129 21.3863L3.30723 12.1806C2.31815 11.1915 1.7721 9.87792 1.76695 8.47672C1.76695 7.08068 2.30785 5.76706 3.29693 4.77798C4.28601 3.79405 5.59963 3.248 6.99052 3.248C8.39172 3.248 9.70534 3.79405 10.6996 4.78828L11.8793 5.96796C12.2089 6.29766 12.7962 6.29766 13.1311 5.96796L14.3056 4.79343C15.2947 3.80435 16.6134 3.2583 18.0095 3.2583C19.4055 3.2583 20.7191 3.80435 21.7082 4.79343C22.6973 5.78251 23.2434 7.09613 23.2382 8.49733C23.2382 9.89337 22.6922 11.207 21.6979 12.1961Z" fill="black"/>
</svg>
