<svg width="25" height="25" viewBox="0 0 25 25" fill="none" xmlns="http://www.w3.org/2000/svg">
<path d="M12.5 12.5C15.3764 12.5 17.7083 10.1681 17.7083 7.29166C17.7083 4.41518 15.3764 2.08333 12.5 2.08333C9.62348 2.08333 7.29163 4.41518 7.29163 7.29166C7.29163 10.1681 9.62348 12.5 12.5 12.5Z" stroke="black" stroke-width="2"/>
<path d="M17.7084 14.5833H18.0747C19.6507 14.5833 20.98 15.7569 21.1756 17.3207L21.5823 20.5749C21.7377 21.8183 20.7682 22.9167 19.515 22.9167H5.485C4.23189 22.9167 3.26233 21.8183 3.41776 20.5749L3.82453 17.3207C4.02001 15.7569 5.3494 14.5833 6.92541 14.5833H7.29171" stroke="black" stroke-width="2" stroke-linecap="round" stroke-linejoin="round"/>
</svg>
